<svg xmlns="http://www.w3.org/2000/svg" xmlns:xlink="http://www.w3.org/1999/xlink" viewBox="0 0 1274 410"><defs><style>.cls-1{fill:none;}.cls-2{isolation:isolate;}.cls-3{fill:#231f20;}.cls-4{fill:#00aeef;}.cls-5{mix-blend-mode:luminosity;opacity:0.4;}.cls-6{clip-path:url(#clip-path);}.cls-7{fill:#fff;}.cls-8{fill:#939598;}</style><clipPath id="clip-path"><rect class="cls-1" x="12.65" y="8.5" width="392.68" height="392.68"/></clipPath></defs><g class="cls-2"><g id="Layer_2" data-name="Layer 2"><path class="cls-3" d="M1256.67,276.84h-24.48v4.68h18.72v28.56c-3,1.68-8.4,2.88-16.92,2.88-21.36,0-34.68-13.68-34.68-36.48,0-22,13.68-36.48,35.88-36.48,7.8,0,13.08,1.44,17.28,3.48l1.92-4.68c-3.12-1.56-10.2-3.6-18.84-3.6-27.48,0-42.25,19.08-42.25,41.52,0,13.08,4.45,24,11.17,30.48,8.16,7.92,17.88,10.56,28.56,10.56a64.12,64.12,0,0,0,23.64-4.32Zm-151.39,40.08V276c0-13.44-.12-22.2-.73-32.16l.25-.12c4.2,8.4,9.72,16.92,15.72,26.16l30.84,47h5.28V236h-5.52v40.32c0,12.6.11,21.84,1,32.76l-.24.12c-4-7.8-8.64-15.36-15.24-25.44L1105.16,236h-5.4v80.88Zm-52.61,0h5.76V236h-5.76Zm-39.08-40.08H989.11v4.68h18.72v28.56c-3,1.68-8.4,2.88-16.92,2.88-21.36,0-34.69-13.68-34.69-36.48,0-22,13.69-36.48,35.89-36.48,7.8,0,13.08,1.44,17.28,3.48l1.92-4.68c-3.12-1.56-10.2-3.6-18.84-3.6-27.49,0-42.24,19.08-42.24,41.52,0,13.08,4.44,24,11.16,30.48,8.16,7.92,17.88,10.56,28.56,10.56a64.12,64.12,0,0,0,23.64-4.32Zm-136,7,10-27.24c1.68-5.16,3-9.36,4.2-14H892c1.19,4.56,2.27,8.64,4.2,14.28l9.83,27Zm30.25,4.8L918,316.92h5.88L894.74,236h-5.52L860,316.92h5.87l10-28.32Zm-87.05,28.32h5.63L821,236h-6.84l-18.12,46.68c-4.08,10.92-6.95,18.72-9,26.16h-.36c-2.28-7.8-5-16-8.87-26.16L760.41,236h-6.6l-5.88,80.88h5.64l2.52-37.2c1-13.44,1.56-27.48,1.8-37h.24c2.4,8.88,5.88,18.6,10.44,31.2l16,43h4l17-43.92c4.68-12.12,7.92-21.48,10.92-30.24h.24c0,8.88,1,23.76,1.68,35.88Zm-117.74,0h5.76V236H703Zm-73-3.48c-19.08,0-29.64-18.12-29.64-36.36,0-18.84,9.48-37.56,30-37.56C650.64,239.52,660,259,660,276c0,20-10.68,37.44-29.88,37.44Zm-.12,4.8c18.6,0,36.12-14,36.12-42.6,0-25-14.88-40.92-35.28-40.92s-36.36,16.08-36.36,42.6c0,25.2,15.48,40.92,35.4,40.92Zm-78.14-1.32h5.76V236h-5.76Zm-77.31-40.68h10.2c12.84,0,23.76,5.52,23.76,18.24,0,13.8-11.64,18.24-24,18.24a54.81,54.81,0,0,1-10-.6Zm0-35.16c1.8-.48,4.92-.84,10.2-.84,12,0,20.64,4.08,20.64,15.48,0,8.88-7.32,15.84-19.07,15.84H474.43Zm-5.75,75.84c3.23.12,7.92.6,14,.6,11.52,0,20.28-2.28,25.68-7.68a21.81,21.81,0,0,0,6-15.48c0-13.2-10.31-19.08-17.16-20.64v-.36c8-2.76,13.93-9.72,13.93-18,0-5.64-1.69-10-5.05-13.2-4.44-4.56-11-6.72-21.12-6.72a72.85,72.85,0,0,0-16.31,1.8Z"/><path class="cls-3" d="M814.73,92v49.2c0,24.84,12.84,33,27,33,15.24,0,28.68-9,28.68-33.84V92h-5.76v48.84c0,19.92-9.24,28.56-22.68,28.56-11.88,0-21.48-7.92-21.48-28.56V92Zm-82.19,80.88h5.76V139.44l8.28-9.12,30.72,42.6h6.84l-33.6-46.56L781.26,92h-7l-28.68,32.52c-2.16,2.52-4.56,5.28-7,8.4h-.36V92h-5.76ZM654.88,97.2a54.4,54.4,0,0,1,11.64-1.08c12.72,0,21.84,5,21.84,17.4,0,10.68-8.16,17.64-20.64,17.64H654.88Zm-5.76,75.72h5.76V135.84h12.6c10.68.48,15.72,5.76,18.24,17.4,2.16,10.2,3.84,17.28,5.16,19.68h5.88c-1.68-3.24-3.24-9.24-6-21.84-1.92-9-6-15.12-12.48-17.16v-.24c9.36-3.24,15.84-10.2,15.84-21.12a20.31,20.31,0,0,0-5.64-14.4c-4.56-4.44-11.28-6.72-21.84-6.72a91.36,91.36,0,0,0-17.52,1.68ZM552.26,92v49.2c0,24.84,12.84,33,27,33,15.24,0,28.67-9,28.67-33.84V92h-5.75v48.84c0,19.92-9.25,28.56-22.68,28.56-11.88,0-21.48-7.92-21.48-28.56V92ZM488,172.92h5.76V96.84h26.41V92H461.59v4.8H488Z"/><path class="cls-4" d="M327.79,323.63a167.82,167.82,0,0,1-78,44.22l5.67,22.64a191.11,191.11,0,0,0,88.82-50.36Zm-60.46-206.1a105,105,0,0,0-120.88,3l13.89,18.74a81.7,81.7,0,0,1,94-2.3ZM209,88.17A116.7,116.7,0,0,1,248.32,95l13.37-37.35A156,156,0,0,0,209,48.5q-7.74,0-15.29.74l3.88,39.48c3.75-.36,7.56-.55,11.41-.55M112,245l21.56-8.93a81.86,81.86,0,0,1,1.64-66.21l-21.09-10A105.26,105.26,0,0,0,112,245m25-1.7-20.58,11q1.22,2.28,2.54,4.48l20-12c-.69-1.15-1.34-2.31-2-3.48m-9.11-105.12c-1.08,1.32-2.14,2.67-3.16,4l18.74,13.9q1.18-1.6,2.46-3.15Zm6.91-7.62q-1.81,1.82-3.54,3.72L148.48,150c.9-1,1.82-2,2.76-2.9Zm6.34,119.62-19.4,13a105.33,105.33,0,0,0,42.38,36.58l10-21.09a82,82,0,0,1-33-28.46m50.78,70a116.35,116.35,0,0,1-22.2-5.55l-13.37,37.36A155.78,155.78,0,0,0,186,359.5Zm-42.71,29.05,15.18-36.66a116.9,116.9,0,0,1-41.81-29.49l-29.4,26.63a156.62,156.62,0,0,0,56,39.52M67.62,271.68l35.87-17q-1.21-2.58-2.31-5.23L64.52,264.68c1,2.36,2,4.7,3.1,7m-5.88-14.21L99.1,244.12A116.77,116.77,0,0,1,191.91,89.41L186.1,50.17A156.45,156.45,0,0,0,61.74,257.47m228.82-48.6A81.18,81.18,0,0,1,281,243.36l20.58,11A104.27,104.27,0,0,0,313.86,210Zm2.75,58.55-18.74-13.91A81.57,81.57,0,0,1,213,286.41l1.14,23.3a104.86,104.86,0,0,0,79.18-42.29m36.51,36.63-30.66-25.18c-1.21,1.47-2.45,2.92-3.73,4.33l29.39,26.64q2.56-2.83,5-5.79M209,361.17a155.82,155.82,0,0,0,110.55-45.79l-28.05-28A116.31,116.31,0,0,1,209,321.51c-1.93,0-3.85-.05-5.76-.14l-2,39.62c2.56.13,5.13.18,7.72.18m62.58-240.65-13.91,18.73c2.14,1.6,4.21,3.29,6.18,5.08L279.52,127q-3.82-3.45-7.95-6.52m15.24,13.83L269.52,150a81.42,81.42,0,0,1,21.14,54.83H314a104.55,104.55,0,0,0-27.18-70.49m60.1-3.19-35,18.69a116.94,116.94,0,0,1,6.95,94.31l37.36,13.37a156.72,156.72,0,0,0-9.31-126.37m3.42,140.58c1.1-2.32,2.14-4.68,3.13-7.06L316.8,249.5c-.73,1.77-1.51,3.53-2.34,5.26Zm-7.24,13.5q2-3.28,3.78-6.66l-35-18.71q-1.35,2.52-2.82,5ZM334.54,298c1.53-2.06,3-4.17,4.45-6.31l-33-22q-1.61,2.4-3.33,4.71ZM176.21,369.64l-4.56,22.89a192.77,192.77,0,0,0,74.67,0l-4.55-22.89a169.5,169.5,0,0,1-65.56,0m-31.53-9.55-8.93,21.56A186.58,186.58,0,0,0,153.39,388l6.78-22.33q-7.92-2.4-15.49-5.55M122.59,349l-12,20c2.68,1.6,5.39,3.15,8.15,4.62l11-20.58c-2.43-1.29-4.81-2.65-7.16-4.06M46,245.65l-22.64,5.67A191.5,191.5,0,0,0,95,358.49l13.91-18.74A168.1,168.1,0,0,1,46,245.65M69.29,111.49l-19.41-13A190.48,190.48,0,0,0,17.65,204.84a193,193,0,0,0,2,28l23.09-3.41a169.08,169.08,0,0,1-1.8-24.6,167.18,167.18,0,0,1,28.31-93.35m9.85-13.26-18-14.81q-3,3.61-5.78,7.38l18.74,13.91c1.64-2.2,3.33-4.37,5.07-6.48M90.19,86l-16.5-16.5q-3.31,3.31-6.46,6.79L84.52,92q2.76-3,5.67-6m12.24-11.1-14.79-18c-2.42,2-4.79,4-7.1,6.12L96.2,80.32c2-1.84,4.11-3.64,6.23-5.38m13.21-9.81-13-19.4q-3.9,2.61-7.66,5.4l13.9,18.75q3.3-2.46,6.72-4.75M217.29,37l1.15-23.3q-4.69-.24-9.45-.24a190.43,190.43,0,0,0-98.33,27.17l12,20,0,0A167.22,167.22,0,0,1,209,36.83c2.78,0,5.55.08,8.3.21m40.51,7,6.79-22.34q-9-2.7-18.25-4.55L241.77,40q8.17,1.62,16,4m11,16.33L253.65,97a117,117,0,0,1,49.06,38.32l31.87-23.62a156.87,156.87,0,0,0-65.75-51.35M360.9,133,382,123a192.14,192.14,0,0,0-66.7-77.3l-13,19.4A168.71,168.71,0,0,1,360.9,133m12.89,39.05,22.89-4.56q-1.83-9.25-4.54-18.18l-22.33,6.77q2.37,7.83,4,16m3,24.55,23.31-1.14c-.15-3.14-.38-6.25-.68-9.35l-23.22,2.29c.26,2.71.46,5.45.59,8.2m23.54,8.23H377a167.33,167.33,0,0,1-38.15,106.61l18,14.8a190.56,190.56,0,0,0,43.46-121.41"/><g class="cls-5"><g class="cls-6"><path class="cls-3" d="M267.33,117.53a105.05,105.05,0,0,0-120.89,3l13.9,18.75a81.68,81.68,0,0,1,94-2.31Z"/><path class="cls-7" d="M263.84,144.33,279.51,127q-3.81-3.45-7.94-6.52l-13.91,18.74a79.29,79.29,0,0,1,6.18,5.07"/><path class="cls-8" d="M290.66,204.84H314a104.6,104.6,0,0,0-27.18-70.49L269.52,150a81.42,81.42,0,0,1,21.14,54.83"/><path class="cls-3" d="M281,243.36l20.57,11A104.14,104.14,0,0,0,313.86,210l-23.31-1.15A81.21,81.21,0,0,1,281,243.36"/><path class="cls-7" d="M136.94,243.33l-20.58,11c.81,1.52,1.65,3,2.54,4.48l20-12c-.69-1.13-1.35-2.3-2-3.47"/><path class="cls-8" d="M141.08,250.21l-19.4,13a105.37,105.37,0,0,0,42.37,36.58l10-21.09a82,82,0,0,1-33-28.46"/><path class="cls-7" d="M213,286.41l1.14,23.3a104.86,104.86,0,0,0,79.18-42.29l-18.74-13.91A81.56,81.56,0,0,1,213,286.41"/><path class="cls-7" d="M151.24,147.09l-16.5-16.5q-1.81,1.82-3.54,3.72L148.48,150c.9-1,1.82-2,2.76-2.9"/><path class="cls-3" d="M127.32,204.84a81.24,81.24,0,0,1,7.84-35l-21.1-10A105.21,105.21,0,0,0,112,245l21.56-8.93a81.49,81.49,0,0,1-6.2-31.26"/><path class="cls-7" d="M145.87,153l-18-14.8c-1.08,1.32-2.14,2.67-3.16,4l18.73,13.9c.8-1.07,1.62-2.12,2.47-3.15"/><path class="cls-3" d="M79.14,98.23l-18-14.81q-3,3.61-5.78,7.38l18.74,13.91q2.46-3.3,5.07-6.48"/><path class="cls-3" d="M122.61,60.71A167.22,167.22,0,0,1,209,36.83c2.78,0,5.55.08,8.3.21l1.14-23.3c-3.13-.16-6.27-.24-9.44-.24a190.43,190.43,0,0,0-98.33,27.17l12,20Z"/><path class="cls-8" d="M264.58,21.71a184.81,184.81,0,0,0-18.24-4.55L241.77,40q8.16,1.62,16,4Z"/><path class="cls-7" d="M90.19,86l-16.5-16.5q-3.31,3.31-6.46,6.79L84.52,92q2.76-3,5.67-6"/><path class="cls-3" d="M373.79,172.06l22.89-4.56q-1.83-9.25-4.54-18.18l-22.33,6.77q2.37,7.83,4,16"/><path class="cls-7" d="M376.79,196.61l23.31-1.14c-.15-3.14-.38-6.25-.68-9.35l-23.22,2.29c.26,2.71.46,5.45.59,8.2"/><path class="cls-7" d="M360.9,133,382,123a192.14,192.14,0,0,0-66.7-77.3l-13,19.41A168.76,168.76,0,0,1,360.9,133"/><path class="cls-8" d="M102.43,74.94l-14.8-18Q84,59.89,80.54,63L96.2,80.32c2-1.84,4.11-3.64,6.23-5.38"/><path class="cls-8" d="M377,204.84h0a167.33,167.33,0,0,1-38.15,106.61l18,14.81a190.6,190.6,0,0,0,43.46-121.42Z"/><path class="cls-8" d="M209,372.84a168.55,168.55,0,0,1-32.78-3.2l-4.56,22.89a192.77,192.77,0,0,0,74.67,0l-4.55-22.89a169.33,169.33,0,0,1-32.78,3.2"/><path class="cls-7" d="M249.8,367.85l5.67,22.63a191,191,0,0,0,88.82-50.35l-16.5-16.5a167.82,167.82,0,0,1-78,44.22"/><path class="cls-7" d="M102.68,45.73q-3.9,2.61-7.66,5.4l13.9,18.75q3.3-2.46,6.72-4.74Z"/><path class="cls-7" d="M135.75,381.65A186.58,186.58,0,0,0,153.39,388l6.78-22.33q-7.92-2.4-15.49-5.55Z"/><path class="cls-7" d="M41,204.84a167.25,167.25,0,0,1,28.3-93.35l-19.4-13A190.4,190.4,0,0,0,17.65,204.84a193,193,0,0,0,2,28l23.08-3.41A170.5,170.5,0,0,1,41,204.84"/><path class="cls-3" d="M46,245.65l-22.64,5.67A191.45,191.45,0,0,0,95,358.49l13.91-18.73A168.16,168.16,0,0,1,46,245.65"/><path class="cls-7" d="M110.59,369q4,2.4,8.15,4.63l11-20.59c-2.41-1.29-4.8-2.65-7.15-4.06Z"/><path class="cls-7" d="M156.29,352.07A155,155,0,0,0,186,359.5l5.82-39.24a116.25,116.25,0,0,1-22.19-5.55Z"/><path class="cls-8" d="M52.65,204.84a156.27,156.27,0,0,0,9.08,52.63L99.1,244.12A116.77,116.77,0,0,1,191.91,89.41L186.1,50.17A156.36,156.36,0,0,0,52.65,204.84"/><path class="cls-3" d="M122.52,283.16l-29.4,26.63a156.59,156.59,0,0,0,56,39.52l15.18-36.66a116.9,116.9,0,0,1-41.81-29.49"/><path class="cls-3" d="M302.71,135.34l31.87-23.63a157,157,0,0,0-65.75-51.35L253.64,97a117,117,0,0,1,49.07,38.32"/><path class="cls-7" d="M248.32,95l13.37-37.36A156,156,0,0,0,209,48.5q-7.74,0-15.29.74l3.87,39.48q5.64-.56,11.42-.55A116.21,116.21,0,0,1,248.32,95"/><path class="cls-7" d="M101.18,249.49,64.52,264.68c1,2.36,2,4.7,3.11,7l35.86-17q-1.21-2.58-2.31-5.23"/><path class="cls-3" d="M314.47,254.77l35.85,17c1.11-2.32,2.15-4.67,3.14-7.06L316.8,249.49c-.74,1.79-1.51,3.54-2.33,5.28"/><path class="cls-8" d="M309.06,264.84l34,20.4q2-3.28,3.79-6.66l-35-18.71q-1.35,2.52-2.83,5"/><path class="cls-8" d="M209,321.51c-1.93,0-3.86-.05-5.76-.14l-2,39.62c2.55.12,5.13.19,7.72.19a155.85,155.85,0,0,0,110.55-45.8l-28.05-28A116.35,116.35,0,0,1,209,321.51"/><path class="cls-3" d="M346.91,131.16l-35,18.69a116.94,116.94,0,0,1,6.95,94.31l37.36,13.37a156.83,156.83,0,0,0-9.31-126.37"/><path class="cls-7" d="M295.43,283.2l29.39,26.64q2.56-2.83,5-5.79l-30.66-25.18c-1.21,1.47-2.45,2.92-3.73,4.33"/><path class="cls-7" d="M302.68,274.37,334.54,298q2.29-3.11,4.45-6.31l-33-22c-1.07,1.6-2.19,3.17-3.33,4.71"/></g></g></g></g></svg>