<?xml version="1.0" encoding="UTF-8" standalone="no"?>
<svg
   xmlns:dc="http://purl.org/dc/elements/1.1/"
   xmlns:cc="http://creativecommons.org/ns#"
   xmlns:rdf="http://www.w3.org/1999/02/22-rdf-syntax-ns#"
   xmlns:svg="http://www.w3.org/2000/svg"
   xmlns="http://www.w3.org/2000/svg"
   xmlns:sodipodi="http://sodipodi.sourceforge.net/DTD/sodipodi-0.dtd"
   xmlns:inkscape="http://www.inkscape.org/namespaces/inkscape"
   version="1.1"
   id="svg2"
   xml:space="preserve"
   width="523.5733"
   height="523.5733"
   viewBox="0 0 523.5733 523.5733"
   sodipodi:docname="BioImaging_logo_posa_pysty.eps"><metadata
     id="metadata8"><rdf:RDF><cc:Work
         rdf:about=""><dc:format>image/svg+xml</dc:format><dc:type
           rdf:resource="http://purl.org/dc/dcmitype/StillImage" /></cc:Work></rdf:RDF></metadata><defs
     id="defs6" /><sodipodi:namedview
     pagecolor="#ffffff"
     bordercolor="#666666"
     borderopacity="1"
     objecttolerance="10"
     gridtolerance="10"
     guidetolerance="10"
     inkscape:pageopacity="0"
     inkscape:pageshadow="2"
     inkscape:window-width="640"
     inkscape:window-height="480"
     id="namedview4" /><g
     id="g10"
     inkscape:groupmode="layer"
     inkscape:label="ink_ext_XXXXXX"
     transform="matrix(1.3333333,0,0,-1.3333333,0,523.57333)"><g
       id="g12"
       transform="scale(0.1)"><path
         d="m 3876.75,1963.4 h -233.36 c 0,-404.75 -143.1,-776.04 -381.54,-1066.08 l 180.37,-148.05 c 271.49,330.27 434.53,753.18 434.53,1214.13 m -235.35,82.26 233.11,11.45 c -1.53,31.35 -3.77,62.5 -6.8,93.46 l -232.23,-22.85 c 2.64,-27.15 4.65,-54.49 5.92,-82.06 m -29.98,245.55 228.91,45.56 c -12.21,61.69 -27.41,122.34 -45.41,181.79 l -223.34,-67.7 c 15.82,-52.2 29.14,-105.45 39.84,-159.65 m -128.91,390.51 210.98,99.73 c -148.77,314.11 -380.51,581.2 -666.99,773.02 l -129.63,-194.02 c 251.5,-168.38 454.98,-402.93 585.64,-678.73 m -920.7,726.39 -151.85,-366.56 c 196.38,-81.39 365.62,-214.89 490.66,-383.2 l 318.65,236.26 c -167.58,225.56 -394.33,404.4 -657.46,513.5 m -110.31,163.3 67.87,223.34 c -59.67,18.07 -120.55,33.26 -182.52,45.51 l -45.64,-228.85 c 54.49,-10.8 107.94,-24.1 160.29,-40 m -405.12,69.95 11.47,233.06 c -31.29,1.54 -62.8,2.39 -94.48,2.39 -359.54,0 -695.9,-99.19 -983.253,-271.7 L 1099.96,3405 l -0.33,-0.33 c 252.38,151.58 547.89,238.79 863.74,238.79 27.85,0 55.49,-0.76 83.01,-2.1 M 1029.92,3360.45 900.254,3554.47 c -25.996,-17.41 -51.484,-35.4 -76.582,-54 l 138.984,-187.46 c 22,16.34 44.464,32.16 67.264,47.44 m -132.107,-98.09 -147.95,180.39 c -24.14,-19.8 -47.851,-40.23 -70.996,-61.18 l 156.641,-172.95 c 20.371,18.38 41.113,36.35 62.305,53.74 M 775.43,3151.42 610.41,3316.36 c -22.09,-22.04 -43.652,-44.7 -64.648,-67.84 l 172.91,-156.72 c 18.457,20.31 37.344,40.22 56.758,59.62 m -110.496,-121.9 -180.371,148.1 c -19.856,-24.15 -39.094,-48.76 -57.747,-73.86 L 614.219,2964.7 c 16.406,22.02 33.261,43.66 50.715,64.82 M 566.367,2896.86 372.324,3026.52 C 168.77,2722.46 50.0195,2356.82 50.0195,1963.4 c 0,-95.18 6.9532,-188.69 20.4102,-280.14 l 230.8283,34.17 c -11.785,80.28 -17.938,162.41 -17.938,245.97 0,345.47 104.297,666.51 283.047,933.46 M 333.262,1555.28 106.875,1498.59 C 215.566,1063.14 473.43,686.77 823.008,426.859 L 962.129,614.262 C 655.117,842.48 428.73,1172.9 333.262,1555.28 M 1099.43,522.27 979.414,322.121 c 26.756,-16.062 53.906,-31.492 81.466,-46.242 l 110.08,205.762 c -24.24,12.988 -48.09,26.519 -71.53,40.629 m 220.9,-111.43 -89.35,-215.57 c 57.44,-23.879 116.34,-44.969 176.43,-63.141 l 67.8,223.293 c -52.79,15.969 -104.45,34.527 -154.88,55.418 M 1635.57,315.379 1590.03,86.4805 C 1710.78,62.5508 1835.61,50 1963.37,50 c 127.78,0 252.58,12.6016 373.34,36.4805 l -45.5,228.8985 c -106.06,-20.988 -215.63,-32.027 -327.84,-32.027 -112.16,0 -221.75,11.039 -327.8,32.027 m 1583.31,716.261 c 15.33,20.66 30.18,41.7 44.53,63.14 l -329.82,220.36 c -10.7,-15.92 -21.84,-31.64 -33.26,-47.07 l 318.55,-236.43 m 85.55,127.79 c 13.14,21.82 25.74,44.04 37.79,66.6 l -349.84,187.06 c -8.99,-16.8 -18.42,-33.4 -28.22,-49.66 l 340.27,-204 m 72.32,134.91 c 11.04,23.29 21.49,46.83 31.35,70.65 l -366.56,151.81 c -7.37,-17.72 -15.18,-35.35 -23.44,-52.64 l 358.65,-169.82 m -34.18,1405.86 -349.96,-186.93 c 87.7,-163.85 137.46,-351.01 137.46,-549.87 0,-138.01 -23.92,-270.38 -67.97,-393.23 l 373.64,-133.69 c 58.88,164.65 91.01,342.04 91.01,526.92 0,266.47 -66.7,517.27 -184.18,736.8 m -600.93,-31.89 -172.95,-156.64 c 131.34,-144.97 211.38,-337.25 211.38,-548.27 h 233.34 c 0,271.32 -102.87,518.56 -271.77,704.91 m -152.49,138.31 -139.02,-187.36 c 21.39,-15.94 42.05,-32.91 61.78,-50.8 l 156.74,172.9 c -25.45,23 -51.92,44.8 -79.5,65.26 M 1963.37,400.051 c 431.74,0 822.6,174.949 1105.51,457.91 l -280.51,280.469 c -211.13,-211.129 -502.79,-341.7 -825,-341.7 -19.29,0 -38.51,0.489 -57.59,1.372 L 1886.17,401.91 c 25.59,-1.269 51.29,-1.859 77.2,-1.859 m 1208.34,571.289 -306.58,251.71 c -12.11,-14.7 -24.57,-29.15 -37.36,-43.26 l 293.9,-266.36 c 17.13,18.902 33.79,38.191 50.04,57.91 m -365.07,366.26 -187.41,139.11 c -141.4,-190.23 -363.63,-316.84 -615.88,-329 l 11.45,-233.062 c 324.3,15.684 609.94,178.422 791.84,422.952 m -27.54,585.45 c -6.06,-124.22 -39.94,-241.26 -95.41,-344.82 l 205.8,-110.06 c 71.38,133.2 114.9,283.59 122.61,443.39 l -233,11.49 M 490.859,1437.06 864.512,1570.61 c -43.887,122.75 -67.844,254.98 -67.844,392.79 0,586.31 432.492,1071.61 995.902,1154.26 l -58.11,392.45 C 979.578,3399.37 400.02,2749.05 400.02,1963.4 c 0,-184.69 32.05,-361.83 90.839,-526.34 m 58.868,-142.04 358.691,169.58 c -8.164,17.14 -15.852,34.62 -23.145,52.25 L 518.672,1364.99 c 9.785,-23.63 20.137,-46.97 31.055,-69.97 m 815.253,-776.321 151.84,366.563 c -160.65,66.597 -303.16,168.058 -418.15,294.918 L 804.676,913.871 C 958.73,743.852 1149.73,607.961 1364.98,518.699 m 427.1,290.531 c -76.66,11.282 -150.91,30.032 -221.97,55.418 L 1436.42,491.121 c 95.21,-34.09 194.65,-59.23 297.41,-74.32 l 58.25,392.429 m -507.81,700.44 -194,-129.64 c 105.16,-157.13 251.59,-284.23 423.81,-365.87 l 99.85,210.94 c -133.96,63.53 -247.86,162.35 -329.66,284.57 m -63.35,1196.24 c -12.14,-12.16 -23.96,-24.56 -35.45,-37.25 l 172.85,-156.74 c 8.95,9.88 18.16,19.53 27.61,29 l -165.01,164.99 m -69.1,-76.2 c -10.86,-13.2 -21.41,-26.76 -31.64,-40.5 l 187.38,-139.06 c 7.96,10.71 16.16,21.22 24.61,31.51 l -180.35,148.05 m 91.09,-1051.19 -205.78,-109.96 c 8.1,-15.14 16.54,-30.03 25.33,-44.73 l 200.2,119.87 c -6.84,11.48 -13.4,23.05 -19.75,34.82 m -249.855,-16.99 215.675,89.3 c -39.96,96.29 -62.06,201.81 -62.06,312.57 0,125.06 28.15,243.56 78.39,349.51 l -210.88,99.87 C 949.57,2276.52 913.367,2124.22 913.367,1963.4 c 0,-142.35 28.391,-278.09 79.688,-401.87 M 1963.37,3130.1 c 137.99,0 270.41,-23.99 393.3,-67.94 l 133.7,373.57 c -164.65,58.93 -342.04,91.08 -527,91.08 -51.61,0 -102.59,-2.54 -152.9,-7.45 l 38.79,-394.8 c 37.55,3.65 75.6,5.54 114.11,5.54 m 583.4,-293.59 c -166.85,111.76 -367.48,176.95 -583.4,176.95 -234.31,0 -450.71,-76.78 -625.39,-206.54 l 138.93,-187.46 c 135.92,100.9 304.2,160.64 486.46,160.64 167.97,0 324.03,-50.68 453.75,-137.6 l 129.65,194.01 M 3151.36,775.441 C 2939.58,563.68 2671.52,408.16 2371.52,333.301 l 56.7,-226.41 c 341.64,85.3 646.97,262.351 888.12,503.558 l -164.98,164.992"
         style="fill:#00adef;fill-opacity:1;fill-rule:nonzero;stroke:none"
         id="path14" /><path
         d="m 1476.92,2619.44 -138.99,187.45 c 10.43,7.74 21.01,15.3 31.73,22.66 -10.71,-7.35 -21.27,-14.89 -31.68,-22.63 l 138.93,-187.46 c 27.07,20.09 55.42,38.55 84.91,55.24 -29.49,-16.69 -57.83,-35.16 -84.9,-55.26 m 940.18,23.04 c -129.78,86.9 -285.84,137.6 -453.72,137.6 -94.51,0 -185.26,-16.05 -269.7,-45.58 84.43,29.54 175.18,45.6 269.69,45.6 167.97,0 324.03,-50.68 453.75,-137.6 l -0.02,-0.02 m 70.13,104.93 59.54,89.1 c -24.72,16.56 -50.18,32.09 -76.33,46.55 26.15,-14.45 51.62,-29.98 76.35,-46.53 l -59.56,-89.12"
         style="fill:#a7a5a6;fill-opacity:1;fill-rule:nonzero;stroke:none"
         id="path16" /><path
         d="m 1476.91,2619.46 -138.93,187.46 c 10.41,7.74 20.97,15.28 31.68,22.63 168.86,115.97 373.35,183.88 593.72,183.88 183.9,0 356.72,-47.31 507.06,-130.37 26.15,-14.46 51.61,-29.99 76.33,-46.55 l -59.54,-89.1 -70.11,-104.9 c -129.72,86.91 -285.78,137.59 -453.75,137.59 -94.51,0 -185.26,-16.06 -269.69,-45.6 -45.96,-16.07 -90.06,-36.15 -131.86,-59.8 -29.49,-16.69 -57.84,-35.15 -84.91,-55.24"
         style="fill:#4384a1;fill-opacity:1;fill-rule:nonzero;stroke:none"
         id="path18" /><path
         d="m 2475.96,2599.23 c -8.48,6.83 -17.11,13.5 -25.89,19.99 l 82.7,111.41 -82.64,-111.37 c 8.74,-6.51 17.35,-13.19 25.83,-20.03 m 119.46,202.71 c -2.08,1.56 -4.16,3.12 -6.25,4.68 v 0 c 2.09,-1.55 4.17,-3.11 6.25,-4.68"
         style="fill:#ffffff;fill-opacity:1;fill-rule:nonzero;stroke:none"
         id="path20" /><path
         d="m 2511.89,2568.48 c -11.67,10.59 -23.65,20.84 -35.93,30.75 -8.48,6.84 -17.09,13.52 -25.83,20.03 l 82.64,111.37 56.4,75.99 c 2.09,-1.56 4.17,-3.12 6.25,-4.68 25.28,-19.11 49.74,-39.31 73.15,-60.55 l -156.68,-172.91"
         style="fill:#66cef5;fill-opacity:1;fill-rule:nonzero;stroke:none"
         id="path22" /><path
         d="m 3013.39,1963.4 h -233.34 c 0,211.02 -80.04,403.3 -211.38,548.27 l 172.95,156.64 v 0 l -172.93,-156.64 c 131.34,-144.97 211.38,-337.25 211.38,-548.27 h 233.32 v 0"
         style="fill:#d3d2d2;fill-opacity:1;fill-rule:nonzero;stroke:none"
         id="path24" /><path
         d="m 3013.39,1963.4 h -233.32 c 0,211.02 -80.04,403.3 -211.38,548.27 l 172.93,156.63 c 168.9,-186.34 271.77,-433.58 271.77,-704.9"
         style="fill:#54a9cb;fill-opacity:1;fill-rule:nonzero;stroke:none"
         id="path26" /><path
         d="m 2889.43,1468.17 -205.76,110.06 c 55.5,103.61 89.35,220.6 95.35,344.85 l 233.06,-11.5 c 0,-0.01 0,-0.01 0,-0.02 l -232.98,11.49 c -6.06,-124.22 -39.94,-241.26 -95.41,-344.82 l 205.75,-110.04 c 0,-0.01 -0.01,-0.01 -0.01,-0.02"
         style="fill:#a7a5a6;fill-opacity:1;fill-rule:nonzero;stroke:none"
         id="path28" /><path
         d="m 2889.44,1468.19 -205.75,110.04 c 55.47,103.56 89.35,220.6 95.41,344.82 l 232.98,-11.49 c -7.72,-159.8 -51.22,-310.18 -122.64,-443.37"
         style="fill:#4384a1;fill-opacity:1;fill-rule:nonzero;stroke:none"
         id="path30" /><path
         d="m 1062.47,1423.83 c 0,0 0,0 0,0.01 l 24.17,14.47 -24.17,-14.48 m -1.87,3.13 c -8.16,13.68 -15.99,27.54 -23.52,41.65 l 205.83,109.91 -205.78,-109.96 c 7.53,-14.07 15.35,-27.92 23.47,-41.6 m 202.04,116.78 c -1.86,3.11 -3.69,6.23 -5.5,9.35 1.82,-3.13 3.67,-6.24 5.53,-9.34 l -0.03,-0.01"
         style="fill:#ffffff;fill-opacity:1;fill-rule:nonzero;stroke:none"
         id="path32" /><path
         d="m 1062.47,1423.84 c -0.63,1.03 -1.25,2.08 -1.87,3.12 -8.12,13.68 -15.94,27.53 -23.47,41.6 l 205.78,109.96 c 4.59,-8.57 9.34,-17.05 14.23,-25.43 1.81,-3.12 3.64,-6.24 5.5,-9.35 l -176,-105.43 -24.17,-14.47"
         style="fill:#66cef5;fill-opacity:1;fill-rule:nonzero;stroke:none"
         id="path34" /><path
         d="m 1514,1014.16 c -172.14,81.64 -318.57,208.74 -423.73,365.82 l 0.03,0.02 c 105.14,-157.1 251.53,-284.17 423.72,-365.81 l -0.02,-0.03 m -190.71,442.03 c -13.71,17.27 -26.72,35.11 -39.02,53.48 h 0.01 c 12.29,-18.37 25.3,-36.21 39.01,-53.48"
         style="fill:#d3d2d2;fill-opacity:1;fill-rule:nonzero;stroke:none"
         id="path36" /><path
         d="M 1514.02,1014.19 C 1341.83,1095.83 1195.44,1222.9 1090.3,1380 l 193.97,129.67 c 12.3,-18.37 25.31,-36.21 39.02,-53.48 77.46,-97.64 176.82,-177.11 290.58,-231.09 l -99.85,-210.91"
         style="fill:#54a9cb;fill-opacity:1;fill-rule:nonzero;stroke:none"
         id="path38" /><path
         d="m 2014.82,914.648 v 0 c 283.19,13.692 536.9,139.532 717.8,334.062 -180.86,-194.53 -434.58,-320.37 -717.8,-334.062 m 390.14,361.662 c 82.92,53.41 155.55,121.42 214.25,200.4 l 0.02,-0.01 c -58.7,-78.97 -131.34,-146.98 -214.27,-200.39"
         style="fill:#ffffff;fill-opacity:1;fill-rule:nonzero;stroke:none"
         id="path40" /><path
         d="m 2014.82,914.648 -11.47,233.062 c 147.55,7.11 284.8,53.37 401.61,128.6 82.93,53.41 155.57,121.42 214.27,200.4 l 187.39,-139.11 c -23.04,-30.98 -47.76,-60.66 -74,-88.89 -180.9,-194.53 -434.61,-320.37 -717.82,-334.062"
         style="fill:#66cef5;fill-opacity:1;fill-rule:nonzero;stroke:none"
         id="path42" /><path
         d="m 1358.27,2511.94 -172.82,156.72 c 11.49,12.69 23.34,25.09 35.45,37.25 l 0.01,-0.01 c -12.14,-12.15 -23.95,-24.55 -35.44,-37.24 l 172.81,-156.71 c 0,0 0,-0.01 -0.01,-0.01"
         style="fill:#ffffff;fill-opacity:1;fill-rule:nonzero;stroke:none"
         id="path44" /><path
         d="m 1358.28,2511.95 -172.81,156.71 c 11.49,12.69 23.3,25.09 35.44,37.24 l 164.97,-165 c -9.44,-9.45 -18.59,-19.09 -27.6,-28.95"
         style="fill:#66cef5;fill-opacity:1;fill-rule:nonzero;stroke:none"
         id="path46" /><path
         d="m 993.086,1561.53 v 0 l 92.404,38.27 -92.404,-38.27 M 969.473,1624 c -36.383,106.46 -56.153,220.63 -56.153,339.4 0,160.82 36.211,313.12 100.81,449.38 l 0.04,-0.02 C 949.566,2276.5 913.367,2124.21 913.367,1963.4 c 0,-118.77 19.762,-232.94 56.106,-339.4 m 192.517,181.34 c -10.05,51.13 -15.32,103.97 -15.32,158.06 0,125.06 28.15,243.56 78.39,349.51 l -35.15,16.65 35.16,-16.65 c -50.25,-105.95 -78.39,-224.45 -78.39,-349.51 0,-54.09 5.27,-106.93 15.31,-158.06"
         style="fill:#a7a5a6;fill-opacity:1;fill-rule:nonzero;stroke:none"
         id="path48" /><path
         d="m 993.086,1561.53 c -8.508,20.5 -16.391,41.34 -23.613,62.47 -36.344,106.46 -56.106,220.63 -56.106,339.4 0,160.81 36.199,313.1 100.803,449.36 l 175.74,-83.2 35.15,-16.65 c -50.24,-105.95 -78.39,-224.45 -78.39,-349.51 0,-54.09 5.27,-106.93 15.32,-158.06 10.52,-53.56 26.28,-105.25 46.7,-154.51 l -123.2,-51.03 -92.408,-38.26"
         style="fill:#4384a1;fill-opacity:1;fill-rule:nonzero;stroke:none"
         id="path50" /><path
         d="m 1307.52,2450.15 -187.36,139.06 c 7.96,10.72 16.16,21.32 24.53,31.74 -8.36,-10.42 -16.53,-21.02 -24.51,-31.74 l 187.35,-139.04 c 0,-0.01 -0.01,-0.01 -0.01,-0.02 m 10.48,13.75 c 4.64,5.99 9.37,11.91 14.17,17.76 v 0 c -4.8,-5.85 -9.52,-11.77 -14.17,-17.76 m 14.17,17.76 -180.35,148.05 c 0,0 0,0 0.01,0 l 180.34,-148.05"
         style="fill:#ffffff;fill-opacity:1;fill-rule:nonzero;stroke:none"
         id="path52" /><path
         d="m 1307.53,2450.17 -187.35,139.04 c 7.98,10.72 16.15,21.32 24.51,31.74 2.37,2.93 4.74,5.85 7.13,8.76 l 180.35,-148.05 c -4.8,-5.85 -9.53,-11.77 -14.17,-17.76 -3.53,-4.54 -7.02,-9.12 -10.47,-13.73"
         style="fill:#66cef5;fill-opacity:1;fill-rule:nonzero;stroke:none"
         id="path54" /><path
         d="m 614.18,2964.67 -166.403,123.54 166.43,-123.5 c -0.008,-0.01 -0.019,-0.03 -0.027,-0.04"
         style="fill:#a7a5a6;fill-opacity:1;fill-rule:nonzero;stroke:none"
         id="path56" /><path
         d="m 614.207,2964.71 -166.43,123.5 -20.953,15.55 c 18.653,25.13 37.922,49.71 57.719,73.8 l 180.34,-148.04 c -17.395,-21.18 -34.278,-42.77 -50.676,-64.81"
         style="fill:#4384a1;fill-opacity:1;fill-rule:nonzero;stroke:none"
         id="path58" /><path
         d="m 1099.61,3404.67 0.32,0.3 -0.27,-0.27 c -0.02,-0.01 -0.04,-0.02 -0.05,-0.03 m 0.33,0.31 -119.842,200.15 c 287.352,172.49 623.712,271.68 983.252,271.68 h 0.01 c -359.53,0 -695.89,-99.19 -983.243,-271.7 L 1099.96,3405 l -0.02,-0.02 m 946.42,236.38 c -0.35,0.02 -0.69,0.03 -1.04,0.05 0.35,-0.02 0.69,-0.03 1.04,-0.05 v 0 m -81.55,2.1 c -0.05,0 -0.1,0 -0.15,0 0.05,0 0.1,0 0.15,0 m -0.32,0 c -0.38,0 -0.75,0 -1.13,0 0.01,0 0.01,0 0.01,0 0.37,0 0.75,0 1.12,0 m 92.08,231.02 c -30.38,1.48 -60.96,2.31 -91.72,2.33 30.78,-0.02 61.34,-0.83 91.72,-2.33 m -91.72,2.33 c -0.12,0 -0.24,0 -0.36,0 0.12,0 0.24,0 0.36,0"
         style="fill:#a7a5a6;fill-opacity:1;fill-rule:nonzero;stroke:none"
         id="path60" /><path
         d="m 1099.66,3404.7 0.27,0.27 0.01,0.01 0.02,0.02 -119.843,200.11 c 287.353,172.51 623.713,271.7 983.253,271.7 0.37,0 0.74,0 1.12,0 0.12,0 0.24,0 0.36,0 v 0 c 30.76,-0.02 61.34,-0.85 91.72,-2.33 0.42,-0.02 0.84,-0.04 1.26,-0.06 l -11.47,-233.06 c -0.35,0.02 -0.69,0.03 -1.04,0.05 -26.68,1.31 -53.5,2.02 -80.51,2.05 -0.05,0 -0.1,0 -0.15,0 -0.05,0 -0.11,0 -0.17,0 -0.37,0 -0.75,0 -1.12,0 v 0 c -0.01,0 -0.02,0 -0.02,0 -315.83,0 -611.32,-87.17 -863.69,-238.76"
         style="fill:#4384a1;fill-opacity:1;fill-rule:nonzero;stroke:none"
         id="path62" /><path
         d="m 2451.54,3571.39 c -52.4,15.89 -105.92,29.25 -160.35,39.99 l 11.43,57.27 -11.41,-57.24 c 54.49,-10.8 107.94,-24.1 160.29,-40 l 32.52,107.03 -32.48,-107.05"
         style="fill:#d3d2d2;fill-opacity:1;fill-rule:nonzero;stroke:none"
         id="path64" /><path
         d="m 2451.5,3571.41 c -52.35,15.9 -105.8,29.2 -160.29,40 l 11.41,57.24 34.27,171.59 c 61.91,-12.26 122.79,-27.4 182.42,-45.51 l -35.29,-116.29 -32.52,-107.03"
         style="fill:#54a9cb;fill-opacity:1;fill-rule:nonzero;stroke:none"
         id="path66" /><path
         d="m 718.652,3091.8 -42.125,38.2 42.133,-38.19 c -0.004,-0.01 -0.004,-0.01 -0.008,-0.01 m 39.828,42.42 c 5.598,5.76 11.239,11.49 16.926,17.17 h 0.004 c -5.687,-5.69 -11.332,-11.41 -16.93,-17.17 M 581.543,3286.9 c 9.508,9.93 19.125,19.76 28.848,29.49 l 27.531,-27.53 -27.512,27.5 c -9.726,-9.7 -19.351,-19.53 -28.867,-29.46"
         style="fill:#ffffff;fill-opacity:1;fill-rule:nonzero;stroke:none"
         id="path68" /><path
         d="M 718.66,3091.81 676.527,3130 545.801,3248.54 c 11.722,12.93 23.644,25.73 35.742,38.36 9.516,9.93 19.141,19.76 28.867,29.46 l 27.512,-27.5 137.488,-137.47 c -5.691,-5.68 -11.332,-11.41 -16.93,-17.17 -13.511,-13.9 -26.773,-28.04 -39.82,-42.41"
         style="fill:#66cef5;fill-opacity:1;fill-rule:nonzero;stroke:none"
         id="path70" /><path
         d="m 3611.4,2291.21 c -10.7,54.22 -24.02,107.47 -39.84,159.67 l 223.34,67.7 c 0,-0.01 0,-0.02 0,-0.03 l -223.32,-67.69 c 15.82,-52.2 29.14,-105.45 39.84,-159.65 h -0.02"
         style="fill:#a7a5a6;fill-opacity:1;fill-rule:nonzero;stroke:none"
         id="path72" /><path
         d="m 3611.42,2291.21 c -10.7,54.2 -24.02,107.45 -39.84,159.65 l 223.32,67.69 c 18.01,-59.43 33.2,-120.1 45.41,-181.78 l -228.89,-45.55"
         style="fill:#4384a1;fill-opacity:1;fill-rule:nonzero;stroke:none"
         id="path74" /><path
         d="m 3757.95,2051.39 116.54,5.72 c 0,-0.01 0,-0.02 0,-0.03 l -116.54,-5.69 m -117.3,9.06 c -1.29,22.55 -3.05,44.98 -5.19,67.29 l 232.23,22.83 v 0 l -232.21,-22.85 c 2.17,-22.29 3.91,-44.71 5.17,-67.27"
         style="fill:#ffffff;fill-opacity:1;fill-rule:nonzero;stroke:none"
         id="path76" /><path
         d="m 3641.42,2045.69 c -0.23,4.92 -0.49,9.84 -0.77,14.76 -1.26,22.56 -3,44.98 -5.17,67.27 l 232.21,22.85 c 3.03,-30.93 5.27,-62.07 6.8,-93.46 l -116.54,-5.72 -116.53,-5.7"
         style="fill:#66cef5;fill-opacity:1;fill-rule:nonzero;stroke:none"
         id="path78" /><path
         d="m 3482.49,2681.72 c -130.66,275.8 -334.14,510.3 -585.64,678.71 l 129.63,194.04 v 0 l -129.61,-194.02 c 251.5,-168.38 454.98,-402.93 585.64,-678.73 h -0.02"
         style="fill:#ffffff;fill-opacity:1;fill-rule:nonzero;stroke:none"
         id="path80" /><path
         d="m 3482.51,2681.72 c -130.66,275.8 -334.14,510.35 -585.64,678.73 l 129.62,194.01 c 286.47,-191.78 518.21,-458.9 666.98,-772.99 l -210.96,-99.74"
         style="fill:#66cef5;fill-opacity:1;fill-rule:nonzero;stroke:none"
         id="path82" /><path
         d="m 835.516,3208.62 v 0 c 1.285,1.17 2.574,2.33 3.867,3.49 -1.293,-1.17 -2.578,-2.33 -3.867,-3.49 m 44.769,39.15 c 5.813,4.9 11.653,9.77 17.528,14.59 l -29.59,36.08 29.597,-36.08 c -5.875,-4.82 -11.718,-9.69 -17.535,-14.59 m -156.336,173.35 c 8.563,7.28 17.188,14.49 25.875,21.63 l 0.016,-0.02 c -8.688,-7.12 -17.32,-14.33 -25.891,-21.61"
         style="fill:#d3d2d2;fill-opacity:1;fill-rule:nonzero;stroke:none"
         id="path84" /><path
         d="m 835.516,3208.62 -156.637,172.95 c 14.812,13.41 29.844,26.59 45.07,39.55 8.571,7.28 17.203,14.49 25.891,21.61 l 118.383,-144.29 29.59,-36.08 c -5.875,-4.82 -11.715,-9.69 -17.528,-14.59 -13.824,-11.67 -27.469,-23.57 -40.902,-35.66 -1.293,-1.16 -2.582,-2.32 -3.871,-3.49"
         style="fill:#54a9cb;fill-opacity:1;fill-rule:nonzero;stroke:none"
         id="path86" /><path
         d="m 3442.2,749.219 -120.66,99.113 120.68,-99.062 c 53.7,65.332 103.17,134.289 147.96,206.449 -44.8,-72.16 -94.27,-141.16 -147.98,-206.5 m 296.43,499.091 c 89.08,220.91 138.12,462.27 138.12,715.09 h 0.02 c 0,-252.82 -49.05,-494.17 -138.14,-715.09"
         style="fill:#d3d2d2;fill-opacity:1;fill-rule:nonzero;stroke:none"
         id="path88" /><path
         d="m 3442.22,749.27 -120.68,99.062 -59.65,48.988 c 238.38,290.04 381.54,661.33 381.54,1066.08 h 233.32 c 0,-252.82 -49.04,-494.18 -138.12,-715.09 -41.22,-102.21 -90.99,-200.02 -148.45,-292.591 -44.79,-72.16 -94.26,-141.117 -147.96,-206.449"
         style="fill:#54a9cb;fill-opacity:1;fill-rule:nonzero;stroke:none"
         id="path90" /><path
         d="m 1963.38,50 v 0 c 127.77,0 252.57,12.6016 373.33,36.4805 L 2313.96,200.93 2336.73,86.4805 C 2215.99,62.5508 2091.13,50 1963.38,50 m -143.04,5.2813 c -78.18,5.789 -155.05,16.2773 -230.33,31.1992 l 45.56,228.8985 -45.54,-228.8985 c 75.28,-14.9219 152.14,-25.4102 230.31,-31.1992 m 143.03,228.0707 c -8.11,0 -16.19,0.058 -24.27,0.179 8.08,-0.121 16.17,-0.179 24.28,-0.179 -0.01,0 -0.01,0 -0.01,0 m 0.17,0 c 0.38,0 0.77,0 1.15,0 -0.38,0 -0.77,0 -1.15,0 m 3.73,0.007 c 0.02,0 0.03,0 0.04,0 -0.01,0 -0.02,0 -0.04,0 m 0.49,0 c 0.07,0 0.14,0 0.21,0 -0.07,0 -0.14,0 -0.21,0 m 0.32,0 c 110.54,0.301 218.57,11.371 323.11,32.02 v 0 C 2186.62,294.68 2078.64,283.66 1968.08,283.359"
         style="fill:#d3d2d2;fill-opacity:1;fill-rule:nonzero;stroke:none"
         id="path92" /><path
         d="m 1963.38,50 c -48.12,0 -95.82,1.7813 -143.04,5.2813 -78.17,5.789 -155.03,16.2773 -230.31,31.1992 l 45.54,228.8985 c 98.34,-19.469 199.79,-30.379 303.53,-31.848 8.08,-0.121 16.16,-0.179 24.27,-0.179 v 0 c 0.01,0 0.01,0 0.01,0 0.05,0 0.11,0 0.16,0 0.38,0 0.77,0 1.15,0 0.86,0 1.72,0.007 2.58,0.007 0.02,0 0.03,0 0.04,0 0.15,0 0.3,0 0.45,0 0.07,0 0.14,0 0.21,0 0.04,0 0.08,0 0.11,0 110.56,0.301 218.54,11.321 323.11,32.02 L 2313.96,200.93 2336.71,86.4805 C 2215.95,62.6016 2091.15,50 1963.37,50"
         style="fill:#54a9cb;fill-opacity:1;fill-rule:nonzero;stroke:none"
         id="path94" /><path
         d="m 2428.2,106.941 -56.7,226.36 c 300,74.859 568.06,230.379 779.84,442.14 l 0.01,-0.011 C 2939.58,563.68 2671.52,408.16 2371.52,333.301 l 56.68,-226.36 v 0 m 771.55,396.129 c 40.33,34.192 79.24,70.02 116.59,107.379 l -109.98,110 110.02,-110 C 3279.02,573.102 3240.09,537.25 3199.75,503.07"
         style="fill:#ffffff;fill-opacity:1;fill-rule:nonzero;stroke:none"
         id="path96" /><path
         d="m 2428.2,106.941 -56.68,226.36 c 300,74.859 568.06,230.379 779.84,442.14 l 55,-54.992 109.98,-110 C 3278.99,573.09 3240.08,537.262 3199.75,503.07 2979.68,316.59 2716.92,178.941 2428.2,106.941"
         style="fill:#66cef5;fill-opacity:1;fill-rule:nonzero;stroke:none"
         id="path98" /><path
         d="m 962.668,3313.01 v 0 c 2.031,1.52 4.078,3.03 6.125,4.54 -2.047,-1.51 -4.09,-3.02 -6.125,-4.54 m 59.142,41.97 c 2.69,1.83 5.39,3.65 8.09,5.46 v -0.01 c -2.7,-1.8 -5.4,-3.62 -8.09,-5.45 m -105.482,20.52 -92.676,124.97 c 23.11,17.13 46.571,33.76 70.446,49.86 -23.868,-16.12 -47.313,-32.73 -70.426,-49.86 l 92.656,-124.97 m 13.828,134.23 -29.902,44.74 c 0.004,0 0.008,0 0.008,0 l 29.894,-44.74"
         style="fill:#ffffff;fill-opacity:1;fill-rule:nonzero;stroke:none"
         id="path100" /><path
         d="m 962.668,3313.01 -46.34,62.49 -92.656,124.97 c 23.113,17.13 46.558,33.74 70.426,49.86 2.05,1.38 4.101,2.76 6.16,4.14 l 29.898,-44.74 99.744,-149.3 c -2.7,-1.8 -5.4,-3.62 -8.09,-5.45 -17.92,-12.14 -35.599,-24.6 -53.017,-37.43 -2.047,-1.51 -4.094,-3.02 -6.133,-4.53"
         style="fill:#66cef5;fill-opacity:1;fill-rule:nonzero;stroke:none"
         id="path102" /><path
         d="m 1407.42,132.082 c -60.15,18.219 -119,39.309 -176.44,63.188 v 0 c 57.44,-23.879 116.34,-44.969 176.43,-63.141 l 67.79,223.25 h 0.01 l -67.79,-223.297 m -176.44,63.188 89.27,215.621 c 13.78,-5.719 27.66,-11.262 41.62,-16.621 -13.94,5.351 -27.79,10.871 -41.54,16.57 l -89.35,-215.57 m 131.03,198.949 c -0.02,0 -0.03,0.011 -0.05,0.023 0.02,-0.012 0.03,-0.023 0.05,-0.023"
         style="fill:#ffffff;fill-opacity:1;fill-rule:nonzero;stroke:none"
         id="path104" /><path
         d="m 1407.41,132.129 c -60.09,18.172 -118.99,39.262 -176.43,63.141 v 0 l 89.35,215.57 c 13.75,-5.699 27.6,-11.219 41.54,-16.57 0.03,-0.008 0.06,-0.02 0.09,-0.028 0.02,-0.012 0.03,-0.023 0.05,-0.023 37.12,-14.25 74.87,-27.207 113.19,-38.84 l -67.79,-223.25"
         style="fill:#66cef5;fill-opacity:1;fill-rule:nonzero;stroke:none"
         id="path106" /><path
         d="m 70.3789,1683.26 c -13.4062,91.45 -20.4101,184.96 -20.4101,280.14 0,370.2 105.1482,715.81 287.2072,1008.65 C 155.164,2679.21 50.0195,2333.6 50.0195,1963.4 c 0,-95.18 6.9532,-188.69 20.4102,-280.14 h -0.0508 m 340.7541,1317.33 -38.805,25.92 c 0.004,0.01 0.004,0.01 0.004,0.01 l 38.801,-25.93"
         style="fill:#ffffff;fill-opacity:1;fill-rule:nonzero;stroke:none"
         id="path108" /><path
         d="m 70.4297,1683.26 c -13.457,91.45 -20.4102,184.96 -20.4102,280.14 0,370.2 105.1445,715.81 287.1565,1008.65 11.418,18.36 23.14,36.52 35.156,54.47 l 38.801,-25.93 155.195,-103.73 c -177.711,-265.39 -281.785,-584.23 -283,-927.39 -0.004,-2.02 -0.008,-4.04 -0.008,-6.07 v 0 0 c 0,-83.56 6.153,-165.69 17.891,-245.97 L 70.4297,1683.26"
         style="fill:#66cef5;fill-opacity:1;fill-rule:nonzero;stroke:none"
         id="path110" /><path
         d="m 823.02,426.859 v 0 l 60.773,81.879 -60.773,-81.879 M 761.344,474.68 C 443.105,731.949 209.035,1089.16 106.875,1498.59 v 0 C 209.07,1089.16 443.152,731.949 761.344,474.68 m -401.168,985.01 c -9.887,31.48 -18.863,63.33 -26.914,95.59 h 0.008 c 8.05,-32.25 17.023,-64.11 26.906,-95.59"
         style="fill:#a7a5a6;fill-opacity:1;fill-rule:nonzero;stroke:none"
         id="path112" /><path
         d="M 823.02,426.859 C 802.125,442.391 781.57,458.332 761.344,474.68 443.152,731.949 209.07,1089.16 106.875,1498.59 l 226.387,56.68 c 8.051,-32.25 17.027,-64.1 26.914,-95.58 C 467.445,1117.95 681.012,823.18 962.078,614.211 L 883.793,508.738 823.008,426.859"
         style="fill:#4384a1;fill-opacity:1;fill-rule:nonzero;stroke:none"
         id="path114" /><path
         d="m 1060.88,275.832 c -27.58,14.797 -54.73,30.227 -81.485,46.289 L 1099.38,522.27 c 0.02,-0.008 0.03,-0.02 0.04,-0.02 L 979.414,322.121 c 26.756,-16.062 53.906,-31.492 81.466,-46.242 l 62.97,117.711 -62.97,-117.758 m 97.99,212.359 c -12.05,6.579 -24.01,13.297 -35.86,20.161 11.87,-6.864 23.82,-13.582 35.86,-20.161"
         style="fill:#ffffff;fill-opacity:1;fill-rule:nonzero;stroke:none"
         id="path116" /><path
         d="m 1060.88,275.879 c -27.56,14.75 -54.71,30.18 -81.466,46.242 L 1099.42,522.25 c 7.83,-4.699 15.69,-9.328 23.59,-13.898 11.85,-6.864 23.81,-13.582 35.86,-20.161 4.01,-2.203 8.03,-4.382 12.07,-6.55 l -47.09,-88.051 -62.97,-117.711"
         style="fill:#66cef5;fill-opacity:1;fill-rule:nonzero;stroke:none"
         id="path118" /><path
         d="m 1733.79,416.801 c -102.74,15.09 -202.21,40.191 -297.39,74.32 l 133.69,373.527 c 0,0 0.01,0 0.02,0 L 1436.42,491.121 c 95.2,-34.082 194.63,-59.23 297.37,-74.312 v -0.008"
         style="fill:#ffffff;fill-opacity:1;fill-rule:nonzero;stroke:none"
         id="path120" /><path
         d="m 1733.79,416.809 c -102.74,15.082 -202.17,40.23 -297.37,74.312 l 133.69,373.527 c 71.04,-25.386 145.29,-44.136 221.92,-55.468 l -58.24,-392.379"
         style="fill:#66cef5;fill-opacity:1;fill-rule:nonzero;stroke:none"
         id="path122" /><path
         d="M 490.84,1437.06 C 432.051,1601.57 400,1778.71 400,1963.4 c 0,785.65 579.531,1435.97 1334.44,1546.71 v 0 C 979.578,3399.37 400.02,2749.05 400.02,1963.4 c 0,-184.69 32.05,-361.83 90.839,-526.34 h -0.019 m 328.203,298 c -14.668,73.85 -22.375,150.2 -22.375,228.34 0,510.23 327.532,943.97 783.852,1102.41 -456.28,-158.44 -783.821,-592.18 -783.821,-1102.41 0,-78.14 7.688,-154.49 22.344,-228.34"
         style="fill:#d3d2d2;fill-opacity:1;fill-rule:nonzero;stroke:none"
         id="path124" /><path
         d="m 490.859,1437.06 c -58.789,164.51 -90.839,341.65 -90.839,526.34 0,785.65 579.558,1435.97 1334.44,1546.71 l 58.09,-392.45 c -73.1,-10.72 -144,-28.23 -212.03,-51.85 C 1124.2,2907.37 796.668,2473.63 796.668,1963.4 c 0,-78.14 7.707,-154.49 22.375,-228.34 11.191,-56.38 26.445,-111.3 45.449,-164.45 L 490.855,1437.07"
         style="fill:#54a9cb;fill-opacity:1;fill-rule:nonzero;stroke:none"
         id="path126" /><path
         d="m 1364.96,518.699 c -110.11,45.641 -213.85,103.512 -309.56,171.91 95.72,-68.39 199.47,-126.25 309.58,-171.91 h -0.02 m -519.991,352.34 c -13.696,14.02 -27.145,28.313 -40.313,42.832 l 293.994,266.309 v 0 L 804.676,913.871 c 13.164,-14.531 26.597,-28.812 40.293,-42.832 m 671.811,14.231 c -59.46,24.66 -116.45,54.089 -170.47,87.82 54.03,-33.719 111.01,-63.141 170.49,-87.781 l -0.02,-0.039"
         style="fill:#a7a5a6;fill-opacity:1;fill-rule:nonzero;stroke:none"
         id="path128" /><path
         d="m 1364.98,518.699 c -110.11,45.66 -213.86,103.52 -309.58,171.91 -75.408,53.891 -145.826,114.313 -210.431,180.43 -13.696,14.02 -27.129,28.301 -40.293,42.832 l 293.984,266.299 c 72.41,-79.88 155.75,-149.7 247.65,-207.08 54.02,-33.731 111.01,-63.16 170.47,-87.82 L 1364.96,518.699"
         style="fill:#4384a1;fill-opacity:1;fill-rule:nonzero;stroke:none"
         id="path130" /><path
         d="m 2900.6,2658.35 c -125,168.31 -294.34,301.81 -490.66,383.2 l 151.85,366.61 c 263.09,-109.11 489.94,-287.96 657.46,-513.51 v 0 c -167.58,225.53 -394.33,404.37 -657.44,513.46 l -151.85,-366.56 c 196.38,-81.39 365.62,-214.89 490.66,-383.2 h -0.02"
         style="fill:#a7a5a6;fill-opacity:1;fill-rule:nonzero;stroke:none"
         id="path132" /><path
         d="m 2900.62,2658.35 c -125.04,168.31 -294.28,301.81 -490.66,383.2 l 151.85,366.56 c 263.11,-109.09 489.86,-287.93 657.44,-513.46 l -318.64,-236.29"
         style="fill:#4384a1;fill-opacity:1;fill-rule:nonzero;stroke:none"
         id="path134" /><path
         d="m 2356.65,3062.13 c -25.2,9.03 -50.8,17.21 -76.76,24.52 25.97,-7.3 51.57,-15.47 76.78,-24.49 l -0.02,-0.03 m -507.41,62.46 -38.79,394.8 c 10.64,1.03 21.32,1.95 32.03,2.77 -10.7,-0.83 -21.37,-1.76 -32.01,-2.8 l 38.78,-394.77 h -0.01 m 111.1,5.51 c 0.11,0 0.23,0 0.35,0 -0.12,0 -0.24,0 -0.35,0 m 0.47,0 c 0.85,0 1.71,0 2.56,0 0.01,0 0.01,0 0.01,0 -0.85,0 -1.71,0 -2.57,0"
         style="fill:#ffffff;fill-opacity:1;fill-rule:nonzero;stroke:none"
         id="path136" /><path
         d="m 2356.67,3062.16 c -25.21,9.02 -50.81,17.19 -76.78,24.49 -100.66,28.32 -206.81,43.45 -316.49,43.45 -0.01,0 -0.01,0 -0.02,0 0,0 0,0 -0.01,0 -0.85,0 -1.71,0 -2.56,0 -0.04,0 -0.08,0 -0.12,0 -0.12,0 -0.24,0 -0.35,0 -37.45,-0.1 -74.54,-1.95 -111.09,-5.51 l -38.78,394.77 c 10.64,1.04 21.31,1.97 32.01,2.8 39.91,3.05 80.22,4.63 120.92,4.63 184.91,0 362.3,-32.13 526.95,-91.09 l -133.68,-373.54"
         style="fill:#66cef5;fill-opacity:1;fill-rule:nonzero;stroke:none"
         id="path138" /><path
         d="m 549.746,1294.97 c -3.152,6.63 -6.25,13.29 -9.297,19.97 3.047,-6.66 6.137,-13.3 9.278,-19.92 l 308.734,145.97 -308.715,-146.02 m 147.527,144 187.981,77.88 0.004,-0.01 -187.985,-77.87 m 208.622,30.97 c -3.43,7.33 -6.778,14.7 -10.047,22.13 3.277,-7.42 6.629,-14.79 10.047,-22.13"
         style="fill:#ffffff;fill-opacity:1;fill-rule:nonzero;stroke:none"
         id="path140" /><path
         d="m 549.727,1295.02 c -3.141,6.62 -6.231,13.26 -9.278,19.92 -7.547,16.55 -14.781,33.25 -21.758,50.05 l 178.582,73.98 187.985,77.87 c 3.433,-8.32 6.965,-16.57 10.59,-24.77 3.269,-7.43 6.617,-14.8 10.047,-22.13 0.832,-1.78 1.664,-3.56 2.503,-5.34 l -49.937,-23.61 -308.734,-145.97"
         style="fill:#66cef5;fill-opacity:1;fill-rule:nonzero;stroke:none"
         id="path142" /><path
         d="m 3393.66,1331.25 c 4.94,11.19 9.76,22.43 14.44,33.74 l -366.56,151.81 c -5.53,-13.3 -11.31,-26.55 -17.34,-39.65 5.99,13.11 11.75,26.32 17.32,39.7 l 366.6,-151.86 c -4.7,-11.32 -9.52,-22.57 -14.46,-33.74 m -219.94,59.23 -155.58,73.63 c 0,0.01 0.01,0.02 0.01,0.03 l 155.57,-73.66"
         style="fill:#a7a5a6;fill-opacity:1;fill-rule:nonzero;stroke:none"
         id="path144" /><path
         d="m 3376.73,1294.39 -203.01,96.09 -155.57,73.66 c 2.04,4.33 4.06,8.67 6.05,13.01 6.03,13.1 11.81,26.35 17.34,39.65 l 366.56,-151.81 c -4.68,-11.31 -9.5,-22.55 -14.44,-33.74 -5.49,-12.38 -11.13,-24.67 -16.93,-36.86"
         style="fill:#4384a1;fill-opacity:1;fill-rule:nonzero;stroke:none"
         id="path146" /><path
         d="m 3304.41,1159.43 -340.27,204 c 9.8,16.31 19.23,32.86 28.22,49.71 l 349.9,-187.11 c -3.71,-6.92 -7.47,-13.81 -11.28,-20.66 3.8,6.85 7.55,13.74 11.24,20.66 l -349.84,187.06 c -8.99,-16.8 -18.42,-33.4 -28.22,-49.66 l 340.25,-203.99 c 0,-0.01 0,-0.01 0,-0.01"
         style="fill:#d3d2d2;fill-opacity:1;fill-rule:nonzero;stroke:none"
         id="path148" /><path
         d="m 3304.41,1159.44 -340.25,203.99 c 9.8,16.26 19.23,32.86 28.22,49.66 l 349.84,-187.06 c -3.69,-6.92 -7.44,-13.81 -11.24,-20.66 -8.61,-15.49 -17.45,-30.8 -26.57,-45.93"
         style="fill:#54a9cb;fill-opacity:1;fill-rule:nonzero;stroke:none"
         id="path150" /><path
         d="m 1963.38,400 c -14.44,0 -28.84,0.219 -43.17,0.621 14.33,-0.391 28.71,-0.57 43.16,-0.57 255.53,0 496.74,61.289 709.72,169.98 C 2460.1,461.301 2218.92,400 1963.38,400 m -0.01,396.73 c -2.25,0 -4.5,0.012 -6.74,0.02 2.25,-0.008 4.49,-0.02 6.74,-0.02 v 0 m 49.73,1.04 c 302.38,12.679 575.04,140.441 775.25,340.66 l 0.01,-0.01 C 2588.16,938.211 2315.54,810.449 2013.1,797.77"
         style="fill:#d3d2d2;fill-opacity:1;fill-rule:nonzero;stroke:none"
         id="path152" /><path
         d="m 1963.37,400.051 c -14.45,0 -28.83,0.179 -43.16,0.57 -11.39,0.309 -22.73,0.75 -34.04,1.289 v 0 l 19.61,396.192 c 16.82,-0.782 33.8,-1.25 50.85,-1.352 2.24,-0.008 4.49,-0.02 6.74,-0.02 v 0 h 0.01 c 16.65,0 33.24,0.352 49.72,1.04 302.44,12.679 575.06,140.441 775.27,340.66 L 3068.86,857.961 C 2953.4,742.488 2819.94,644.988 2673.09,570.031 2460.11,461.34 2218.9,400.051 1963.37,400.051"
         style="fill:#54a9cb;fill-opacity:1;fill-rule:nonzero;stroke:none"
         id="path154" /><path
         d="m 3435.72,1436.48 -373.64,133.69 c 44.05,122.85 67.97,255.22 67.97,393.23 0,198.81 -49.76,386.02 -137.46,549.87 l 349.96,186.95 c 0.01,-0.02 0.01,-0.01 0.02,-0.03 l -349.96,-186.92 c 87.7,-163.85 137.46,-351.01 137.46,-549.87 0,-138.01 -23.92,-270.38 -67.97,-393.23 l 373.62,-133.69 v 0"
         style="fill:#a7a5a6;fill-opacity:1;fill-rule:nonzero;stroke:none"
         id="path156" /><path
         d="m 3435.72,1436.48 -373.62,133.69 c 44.05,122.85 67.97,255.22 67.97,393.23 0,198.86 -49.76,386.02 -137.46,549.87 l 349.96,186.93 c 117.5,-219.55 184.16,-470.41 184.16,-736.8 0,-184.88 -32.13,-362.27 -91.01,-526.92"
         style="fill:#4384a1;fill-opacity:1;fill-rule:nonzero;stroke:none"
         id="path158" /><path
         d="m 3121.66,913.43 -103.09,93.44 103.09,-93.429 v -0.011 m -293.88,266.38 -0.03,0.03 c 12.79,14.06 25.25,28.51 37.36,43.21 l 0.01,-0.01 c -12.1,-14.69 -24.55,-29.13 -37.34,-43.23"
         style="fill:#ffffff;fill-opacity:1;fill-rule:nonzero;stroke:none"
         id="path160" /><path
         d="m 3121.66,913.441 -103.09,93.429 -190.79,172.94 c 12.79,14.1 25.24,28.54 37.34,43.23 l 306.57,-251.7 c -16.24,-19.719 -32.9,-39.008 -50.03,-57.899"
         style="fill:#66cef5;fill-opacity:1;fill-rule:nonzero;stroke:none"
         id="path162" /><path
         d="m 3173.45,1154.88 -239.86,160.26 c -10.7,-15.92 -21.84,-31.64 -33.26,-47.07 l 94.55,-70.17 -94.57,70.17 c 11.42,15.43 22.56,31.1 33.26,47.12 l 239.88,-160.31"
         style="fill:#ffffff;fill-opacity:1;fill-rule:nonzero;stroke:none"
         id="path164" /><path
         d="m 3218.86,1031.69 -223.98,166.21 -94.55,70.17 c 11.42,15.43 22.56,31.15 33.26,47.07 l 239.86,-160.26 89.94,-60.1 c -14.35,-21.44 -29.2,-42.43 -44.53,-63.09"
         style="fill:#66cef5;fill-opacity:1;fill-rule:nonzero;stroke:none"
         id="path166" /></g></g></svg>
